<?xml version="1.0" standalone="no"?>
<!DOCTYPE svg PUBLIC "-//W3C//DTD SVG 20010904//EN"
 "http://www.w3.org/TR/2001/REC-SVG-20010904/DTD/svg10.dtd">
<svg version="1.0" xmlns="http://www.w3.org/2000/svg"
 width="512.000000pt" height="512.000000pt" viewBox="0 0 512.000000 512.000000"
 preserveAspectRatio="xMidYMid meet">

<circle cx="256" cy="256" r="256" fill="#FFFFFF"/>

<g transform="translate(0.000000,512.000000) scale(0.100000,-0.100000)"
fill="#000000" stroke="none">
<path d="M2385 4940 c-425 -45 -829 -245 -1127 -559 -146 -153 -232 -277 -329
-472 -198 -400 -253 -827 -163 -1266 50 -246 188 -552 343 -761 72 -96 93
-113 52 -40 -16 29 -46 96 -66 148 -203 520 -129 1076 202 1527 149 203 367
381 600 489 350 163 745 193 1118 85 55 -16 101 -28 103 -26 2 2 -23 24 -55
49 -75 60 -195 119 -308 153 -84 25 -102 27 -280 27 -181 0 -195 -2 -305 -31
-63 -17 -116 -30 -118 -28 -2 2 43 21 100 43 300 117 574 114 825 -8 122 -60
225 -140 316 -249 116 -137 155 -168 422 -331 157 -96 266 -181 393 -304 265
-258 478 -594 586 -926 54 -163 80 -287 103 -482 9 -82 19 -148 23 -148 3 0
13 12 22 27 50 85 78 341 60 545 -35 404 -175 770 -485 1268 -105 168 -128
220 -157 352 -38 176 -85 266 -199 378 -183 181 -516 365 -826 455 -268 78
-603 111 -850 85z m452 -155 c65 -9 168 -29 230 -45 112 -30 257 -80 250 -86
-2 -2 -33 5 -70 16 -181 51 -472 78 -665 61 -609 -54 -1112 -391 -1422 -951
-47 -85 -44 -64 8 60 86 206 192 360 359 520 347 336 818 488 1310 425z m1045
-575 c77 -22 128 -89 128 -170 0 -44 3 -43 -75 -23 -82 21 -135 85 -135 161 0
47 11 51 82 32z m396 -467 c32 -46 76 -139 59 -125 -29 25 -97 119 -97 135 0
25 16 20 38 -10z m-116 -126 c322 -321 539 -715 623 -1132 34 -168 30 -176
-10 -19 -81 317 -230 621 -448 909 -76 101 -195 242 -266 318 -30 31 -49 57
-43 57 7 0 71 -60 144 -133z"/>
<path d="M1249 4532 c-337 -230 -604 -540 -789 -917 -147 -299 -217 -560 -242
-898 -23 -313 27 -665 137 -963 48 -129 148 -337 214 -444 326 -525 867 -922
1436 -1054 138 -32 152 -35 305 -45 448 -32 868 97 1265 389 456 335 765 904
793 1460 5 111 8 126 13 85 13 -90 9 -303 -6 -408 -49 -327 -180 -613 -399
-874 -175 -209 -367 -357 -654 -504 -64 -33 -108 -58 -97 -55 148 35 278 82
426 157 412 206 678 450 818 750 270 576 164 1286 -270 1814 -67 82 -169 184
-169 169 0 -6 11 -39 25 -73 115 -295 129 -685 35 -1000 -152 -510 -413 -877
-815 -1146 -434 -290 -940 -388 -1442 -280 -367 80 -711 269 -976 538 -154
157 -257 298 -362 498 -72 139 -86 181 -26 77 261 -447 687 -793 1173 -953
335 -110 643 -131 963 -65 204 43 457 147 626 260 97 64 261 201 290 241 18
25 4 19 -87 -42 -173 -113 -339 -184 -544 -230 -93 -21 -130 -24 -315 -24
-236 0 -323 14 -518 81 -176 62 -408 191 -607 340 -410 305 -688 741 -797
1251 -26 121 -27 142 -27 388 0 244 2 267 27 384 89 408 290 769 586 1054 56
53 100 97 98 97 -2 0 -41 -26 -88 -58z"/>
</g>
</svg>
